<?xml version="1.0" encoding="UTF-8" standalone="no"?>
<!-- Created with Inkscape (http://www.inkscape.org/) -->

<svg
   xmlns:dc="http://purl.org/dc/elements/1.1/"
   xmlns:cc="http://creativecommons.org/ns#"
   xmlns:rdf="http://www.w3.org/1999/02/22-rdf-syntax-ns#"
   xmlns:svg="http://www.w3.org/2000/svg"
   xmlns="http://www.w3.org/2000/svg"
   xmlns:xlink="http://www.w3.org/1999/xlink"
   xmlns:sodipodi="http://sodipodi.sourceforge.net/DTD/sodipodi-0.dtd"
   xmlns:inkscape="http://www.inkscape.org/namespaces/inkscape"
   width="744.09448819"
   height="1052.3622047"
   id="svg2"
   version="1.1"
   inkscape:version="0.47 r22583"
   sodipodi:docname="track03.svg">
  <defs
     id="defs4">
    <inkscape:perspective
       sodipodi:type="inkscape:persp3d"
       inkscape:vp_x="0 : 526.18109 : 1"
       inkscape:vp_y="0 : 1000 : 0"
       inkscape:vp_z="744.09448 : 526.18109 : 1"
       inkscape:persp3d-origin="372.04724 : 350.78739 : 1"
       id="perspective10" />
    <inkscape:perspective
       id="perspective3619"
       inkscape:persp3d-origin="0.5 : 0.33333333 : 1"
       inkscape:vp_z="1 : 0.5 : 1"
       inkscape:vp_y="0 : 1000 : 0"
       inkscape:vp_x="0 : 0.5 : 1"
       sodipodi:type="inkscape:persp3d" />
    <inkscape:perspective
       id="perspective3619-0"
       inkscape:persp3d-origin="0.5 : 0.33333333 : 1"
       inkscape:vp_z="1 : 0.5 : 1"
       inkscape:vp_y="0 : 1000 : 0"
       inkscape:vp_x="0 : 0.5 : 1"
       sodipodi:type="inkscape:persp3d" />
    <inkscape:perspective
       id="perspective3651"
       inkscape:persp3d-origin="0.5 : 0.33333333 : 1"
       inkscape:vp_z="1 : 0.5 : 1"
       inkscape:vp_y="0 : 1000 : 0"
       inkscape:vp_x="0 : 0.5 : 1"
       sodipodi:type="inkscape:persp3d" />
    <inkscape:perspective
       id="perspective3910"
       inkscape:persp3d-origin="0.5 : 0.33333333 : 1"
       inkscape:vp_z="1 : 0.5 : 1"
       inkscape:vp_y="0 : 1000 : 0"
       inkscape:vp_x="0 : 0.5 : 1"
       sodipodi:type="inkscape:persp3d" />
    <inkscape:perspective
       id="perspective3924"
       inkscape:persp3d-origin="0.5 : 0.33333333 : 1"
       inkscape:vp_z="1 : 0.5 : 1"
       inkscape:vp_y="0 : 1000 : 0"
       inkscape:vp_x="0 : 0.5 : 1"
       sodipodi:type="inkscape:persp3d" />
    <inkscape:perspective
       id="perspective3959"
       inkscape:persp3d-origin="0.5 : 0.33333333 : 1"
       inkscape:vp_z="1 : 0.5 : 1"
       inkscape:vp_y="0 : 1000 : 0"
       inkscape:vp_x="0 : 0.5 : 1"
       sodipodi:type="inkscape:persp3d" />
    <inkscape:perspective
       id="perspective2844"
       inkscape:persp3d-origin="0.5 : 0.33333333 : 1"
       inkscape:vp_z="1 : 0.5 : 1"
       inkscape:vp_y="0 : 1000 : 0"
       inkscape:vp_x="0 : 0.5 : 1"
       sodipodi:type="inkscape:persp3d" />
  </defs>
  <sodipodi:namedview
     id="base"
     pagecolor="#ffffff"
     bordercolor="#666666"
     borderopacity="1.0"
     inkscape:pageopacity="0.0"
     inkscape:pageshadow="2"
     inkscape:zoom="1.979899"
     inkscape:cx="377.53982"
     inkscape:cy="296.18675"
     inkscape:document-units="px"
     inkscape:current-layer="layer1"
     showgrid="false"
     inkscape:window-width="1680"
     inkscape:window-height="976"
     inkscape:window-x="0"
     inkscape:window-y="25"
     inkscape:window-maximized="1" />
  <metadata
     id="metadata7">
    <rdf:RDF>
      <cc:Work
         rdf:about="">
        <dc:format>image/svg+xml</dc:format>
        <dc:type
           rdf:resource="http://purl.org/dc/dcmitype/StillImage" />
        <dc:title></dc:title>
      </cc:Work>
    </rdf:RDF>
  </metadata>
  <g
     inkscape:label="Layer 1"
     inkscape:groupmode="layer"
     id="layer1">
    <rect
       style="fill:#282520;fill-opacity:1;stroke:none"
       id="rect3648"
       width="294.50873"
       height="294.59085"
       x="207.30223"
       y="610.59406"
       inkscape:export-filename="/home/roa/Desktop/track/trackB.png"
       inkscape:export-xdpi="611.08002"
       inkscape:export-ydpi="611.08002" />
    <g
       id="g3976"
       transform="matrix(1.4645351,0,0,1.4645351,-105.74026,-159.6357)">
      <image
         transform="scale(-1,1)"
         xlink:href="file:///home/roa/Desktop/track/herbe_1.jpg"
         width="100.61538"
         height="100.61538"
         id="image3912-9"
         x="-412.44739"
         y="304.54416" />
      <image
         xlink:href="file:///home/roa/Desktop/track/herbe_1.jpg"
         width="100.61538"
         height="100.61538"
         id="image3912"
         x="211.31691"
         y="304.50436" />
      <image
         transform="scale(-1,-1)"
         xlink:href="file:///home/roa/Desktop/track/herbe_1.jpg"
         width="100.61538"
         height="100.61538"
         id="image3912-9-3"
         x="-412.38672"
         y="-505.64981" />
      <image
         transform="scale(1,-1)"
         xlink:href="file:///home/roa/Desktop/track/herbe_1.jpg"
         width="100.61538"
         height="100.61538"
         id="image3912-7"
         x="211.31935"
         y="-505.56335" />
    </g>
    <path
       style="fill:#626262;stroke:#580000;stroke-width:1;stroke-linecap:butt;stroke-linejoin:miter;stroke-opacity:1;fill-opacity:1;stroke-miterlimit:4;stroke-dasharray:2,1;stroke-dashoffset:0"
       d="M 309 316.71875 C 289.43944 316.71875 275.02095 318.66793 251.875 332.03125 C 228.72905 345.39457 225.71875 345.94643 225.71875 377.375 C 225.71875 408.80357 225.21875 448.31696 225.21875 474.03125 C 225.19894 487.77477 223.68116 502.61186 224.3125 512.4375 C 226.82032 551.46669 314.29682 543.46875 333.53125 543.46875 C 352.76569 543.46875 424.77803 530.72197 440.78125 514.71875 C 456.78448 498.71552 482.46875 400.93756 482.46875 359.1875 C 482.46875 317.43744 459.28572 316.71875 440 316.71875 L 309 316.71875 z M 316.75 339.25 L 421.9375 339.25 C 437.42499 339.25 456.03125 339.81615 456.03125 373.34375 C 456.03125 406.87135 435.41397 485.39852 422.5625 498.25 C 409.71103 511.10147 351.88381 521.34375 336.4375 521.34375 C 320.99119 521.34375 250.73267 527.78008 248.71875 496.4375 C 248.21175 488.54697 249.45285 476.63055 249.46875 465.59375 C 249.46875 444.94376 249.84375 413.20762 249.84375 387.96875 C 249.84375 362.72989 252.28753 362.26273 270.875 351.53125 C 289.46247 340.79977 301.04179 339.25 316.75 339.25 z "
       id="path2816" />
    <path
       style="fill:none;stroke:#000000;stroke-width:1px;stroke-linecap:butt;stroke-linejoin:miter;stroke-opacity:1"
       d="m 507.97542,471.68814 c 0,-25.71429 0.50508,-65.24882 0.50508,-96.67739 0,-31.42857 3.02964,-31.97413 26.17559,-45.33745 23.14595,-13.36332 37.56042,-15.30552 57.12098,-15.30552 19.56056,0 111.70342,0 130.98913,0 19.28572,0 42.46435,0.71428 42.46435,42.46434 0,41.75006 -25.67172,139.52978 -41.67495,155.53301 -16.00322,16.00322 -88.03481,28.74271 -107.26925,28.74271 -19.23442,0 -106.7129,8.00488 -109.22072,-31.02431 -0.63134,-9.82564 0.88998,-24.65187 0.90979,-38.39539 z"
       id="path2816-2"
       sodipodi:nodetypes="cssssssssc" />
    <path
       style="fill:none;stroke:#c1c1c1;stroke-width:2;stroke-linecap:butt;stroke-linejoin:miter;stroke-opacity:1;stroke-miterlimit:4;stroke-dasharray:16,16;stroke-dashoffset:0"
       d="m 237.11259,469.82551 c 0,-23.27068 0.45708,-59.04826 0.45708,-87.4902 0,-28.44192 2.74173,-28.93565 23.68814,-41.02905 20.9464,-12.09342 33.99107,-13.85104 51.69281,-13.85104 17.70172,0 101.08831,0 118.54131,0 17.45301,0 38.42898,0.64639 38.42898,38.42897 0,37.78258 -23.23215,126.27035 -37.7146,140.7528 -14.48244,14.48244 -79.66891,26.01131 -97.07552,26.01131 -17.40659,0 -96.57203,7.24418 -98.84154,-28.07609 -0.57134,-8.89192 0.80541,-22.30922 0.82334,-34.7467 z"
       id="path2816-2-4"
       sodipodi:nodetypes="cssssssssc" />
    <path
       style="fill:#626262;fill-opacity:1;stroke:none;stroke-width:1;stroke-linecap:butt;stroke-linejoin:miter;stroke-miterlimit:4;stroke-opacity:1;stroke-dasharray:2, 1;stroke-dashoffset:0"
       d="m 312.54145,641.00756 c -19.56056,0 -33.97905,1.94918 -57.125,15.3125 -23.14595,13.36332 -26.15625,13.91518 -26.15625,45.34375 0,31.42857 -0.5,70.94196 -0.5,96.65625 -0.0198,13.74352 -1.53759,28.58061 -0.90625,38.40625 2.50782,39.02919 89.98432,31.03125 109.21875,31.03125 19.23444,0 91.24678,-12.74678 107.25,-28.75 16.00323,-16.00323 41.6875,-113.78119 41.6875,-155.53125 0,-41.75006 -23.18303,-42.46875 -42.46875,-42.46875 l -131,0 z m 7.75,22.53125 105.1875,0 c 15.48749,0 34.09375,0.56615 34.09375,34.09375 0,33.5276 -20.61728,112.05477 -33.46875,124.90625 -12.85147,12.85147 -70.67869,23.09375 -86.125,23.09375 -15.44631,0 -85.70483,6.43633 -87.71875,-24.90625 -0.507,-7.89053 0.7341,-19.80695 0.75,-30.84375 0,-20.64999 0.375,-52.38613 0.375,-77.625 0,-25.23886 2.44378,-25.70602 21.03125,-36.4375 18.58747,-10.73148 30.16679,-12.28125 45.875,-12.28125 z"
       id="path2816-9"
       inkscape:export-filename="/home/roa/Desktop/track/trackB.png"
       inkscape:export-xdpi="611.08002"
       inkscape:export-ydpi="611.08002" />
  </g>
</svg>
